<svg width="217" height="136" viewBox="0 0 217 136" fill="none" xmlns="http://www.w3.org/2000/svg">
<circle cx="5.7447" cy="5.7447" r="5.7447" transform="matrix(1 0 0 -1 91.7383 61.8027)" fill="white"/>
<circle cx="2.29788" cy="2.29788" r="2.29788" transform="matrix(1 0 0 -1 44.0586 78.4609)" fill="white"/>
<circle cx="3.44682" cy="3.44682" r="3.44682" transform="matrix(1 0 0 -1 39.4609 7.80273)" fill="white"/>
<circle cx="3.44682" cy="3.44682" r="3.44682" transform="matrix(1 0 0 -1 210.08 28.4824)" fill="white"/>
<circle cx="3.44682" cy="3.44682" r="3.44682" transform="matrix(1 0 0 -1 107.824 134.184)" fill="white"/>
<circle cx="1.72341" cy="1.72341" r="1.72341" transform="matrix(1 0 0 -1 0.972656 100.865)" fill="white"/>
<circle cx="1.72341" cy="1.72341" r="1.72341" transform="matrix(1 0 0 -1 10.1641 135.908)" fill="white"/>
</svg>
