<svg width="216" height="135" viewBox="0 0 216 135" fill="none" xmlns="http://www.w3.org/2000/svg">
<circle cx="5.7447" cy="5.7447" r="5.7447" transform="matrix(1 0 0 -1 90.7656 60.8945)" fill="#2D57ED"/>
<circle cx="2.29788" cy="2.29788" r="2.29788" transform="matrix(1 0 0 -1 43.0859 77.5527)" fill="#2D57ED"/>
<circle cx="3.44682" cy="3.44682" r="3.44682" transform="matrix(1 0 0 -1 38.4883 6.89453)" fill="#2D57ED"/>
<circle cx="3.44682" cy="3.44682" r="3.44682" transform="matrix(1 0 0 -1 209.107 27.5743)" fill="#2D57ED"/>
<circle cx="3.44682" cy="3.44682" r="3.44682" transform="matrix(1 0 0 -1 106.852 133.275)" fill="#2D57ED"/>
<circle cx="1.72341" cy="1.72341" r="1.72341" transform="matrix(1 0 0 -1 0 99.957)" fill="#2D57ED"/>
<circle cx="1.72341" cy="1.72341" r="1.72341" transform="matrix(1 0 0 -1 9.19141 135)" fill="#2D57ED"/>
</svg>
