<svg width="124" height="36" viewBox="0 0 124 36" fill="none" xmlns="http://www.w3.org/2000/svg">
<g clip-path="url(#clip0_1163_6985)">
<path d="M7.29662 13.1826C8.98549 12.6532 10.5292 12.415 11.9014 12.4414C13.2868 12.4679 14.4743 12.6797 15.4903 13.09C16.493 13.487 17.3111 14.0429 17.9312 14.7311C18.5514 15.4194 18.9604 16.2003 19.1715 17.0341C19.3694 17.815 19.3826 18.6223 19.2111 19.4429C19.0527 20.2767 18.6965 21.0708 18.1687 21.865C17.6409 22.6458 16.9153 23.3738 15.9917 24.0488C15.0813 24.7238 13.9597 25.2929 12.6271 25.7958C12.3896 25.8885 12.1653 25.8885 11.9278 25.7826C11.6903 25.6767 11.532 25.5047 11.466 25.2664C11.4132 25.0811 11.4396 24.8958 11.5584 24.6841C11.6771 24.4856 11.9146 24.287 12.2577 24.0885C12.7063 23.837 13.0889 23.5194 13.3792 23.1223C13.6695 22.7253 13.8806 22.2885 14.0125 21.812C14.1445 21.3356 14.1972 20.8194 14.1972 20.2767C14.1972 19.7341 14.1049 19.1782 13.9465 18.6356C13.7618 17.987 13.4847 17.3782 13.1153 16.8091C12.7459 16.24 12.2973 15.7635 11.7695 15.3797C11.2417 14.9958 10.6348 14.7311 9.94867 14.612C9.26257 14.4797 8.52369 14.5458 7.73203 14.7973C7.34939 14.9164 6.96676 15.0356 6.58413 15.1547C7.86397 19.165 9.13062 23.1885 10.4105 27.1988C10.6348 27.9003 10.8723 28.5223 11.1362 29.0385C11.4 29.5547 11.6375 30.0179 11.875 30.4414C12.1125 30.8517 12.3105 31.2223 12.4952 31.5267C12.6667 31.8311 12.8118 32.1356 12.891 32.4135C13.1285 33.1811 12.9966 33.8164 12.4952 34.3326C11.9938 34.8488 11.2285 35.2723 10.1994 35.6164C9.17021 35.9606 8.29938 36.0929 7.60009 35.9738C6.88759 35.8679 6.39941 35.4444 6.13552 34.7032C6.02996 34.4253 5.96399 34.1076 5.92441 33.737C5.88483 33.3664 5.83205 32.9429 5.77927 32.4797C5.7133 32.0032 5.63414 31.487 5.52858 30.9179C5.42303 30.3488 5.2515 29.7135 5.00081 29.012C4.30151 27.0267 3.60221 25.0414 2.88972 23.0561C2.63903 22.3547 2.37514 21.7458 2.09806 21.2297C1.80779 20.7135 1.5439 20.2503 1.28002 19.8532C1.01613 19.4561 0.791828 19.0988 0.567525 18.7944C0.356416 18.49 0.198085 18.1988 0.0925305 17.9208C-0.171355 17.1797 -0.0262181 16.5311 0.527942 15.9753C1.0821 15.4194 1.95293 14.9297 3.11402 14.5458C4.48623 14.0826 5.87163 13.6326 7.25703 13.1958L7.29662 13.1826Z" fill="white"/>
<path d="M37.4192 24.9619C37.6171 25.1075 37.7358 25.2928 37.7754 25.5178C37.7886 25.6237 37.7754 25.7428 37.749 25.8619C37.7094 25.981 37.6171 26.1663 37.4456 26.4045C36.865 27.2384 36.0074 27.9795 34.8727 28.6281C33.738 29.2766 32.5109 29.7266 31.1783 29.9913C30.1359 30.1898 29.0936 30.2428 28.0248 30.1369C26.9561 30.031 25.9533 29.7398 25.0165 29.2369C24.0797 28.7339 23.2485 28.006 22.5228 27.0398C21.7971 26.0737 21.2562 24.8428 20.9263 23.3339C20.6756 22.156 20.6756 20.9781 20.9263 19.8266C21.177 18.6751 21.6652 17.6163 22.3777 16.6369C23.0902 15.6707 24.0138 14.8237 25.1221 14.1222C26.2304 13.4207 27.4971 12.9442 28.9088 12.6928C29.9644 12.4942 30.9144 12.4545 31.772 12.5869C32.6296 12.7192 33.3685 12.9575 33.9887 13.2884C34.622 13.6325 35.1234 14.056 35.4928 14.5722C35.8622 15.0884 36.0997 15.6575 36.1921 16.2663C36.2977 16.9942 36.1921 17.7619 35.8754 18.5428C35.5588 19.3369 35.0178 20.0913 34.2525 20.8192C33.4873 21.5472 32.4845 22.209 31.2442 22.8178C30.004 23.4266 28.4998 23.9163 26.7186 24.3001C27.3651 25.584 28.1964 26.4839 29.1991 26.9737C30.2151 27.4634 31.2574 27.6089 32.3526 27.4104C33.0387 27.2781 33.6984 27.0266 34.3449 26.6428C34.9914 26.2589 35.5456 25.8222 36.0206 25.3192C36.2053 25.1207 36.3504 24.9884 36.456 24.9222C36.5615 24.8692 36.6671 24.8295 36.7727 24.8031C36.9706 24.7766 37.1817 24.8031 37.3928 24.9354L37.4192 24.9619ZM26.0325 22.1692C26.0589 22.2751 26.0853 22.381 26.1117 22.5134C26.138 22.6325 26.1776 22.7516 26.2172 22.8442C27.286 22.5663 28.17 22.1957 28.8561 21.7192C29.5422 21.2428 30.0831 20.7266 30.4658 20.1707C30.8484 19.6148 31.0991 19.0325 31.2047 18.4369C31.3102 17.8413 31.3234 17.2722 31.231 16.756C31.0991 16.0016 30.7824 15.3928 30.3074 14.9031C29.8193 14.4266 29.2387 14.2413 28.5394 14.3869C27.9589 14.506 27.4575 14.8104 27.0485 15.3134C26.6394 15.8163 26.3228 16.4384 26.1117 17.1795C25.9006 17.9207 25.7818 18.7281 25.7686 19.5884C25.7554 20.4619 25.8478 21.3222 26.0325 22.1692Z" fill="white"/>
<path d="M45.0053 10.6414C45.2692 10.6149 45.4803 10.6679 45.665 10.8002C45.8498 10.9326 45.9421 11.1179 45.9685 11.3429C45.9949 11.5811 45.9289 11.7664 45.7706 11.9385C45.6255 12.0973 45.4144 12.1899 45.1637 12.2164C44.6359 12.2693 44.1081 12.3223 43.5935 12.3752C43.8442 14.6385 44.0817 16.9017 44.3324 19.1649C44.4644 20.3826 44.6095 21.3488 44.781 22.0502C44.9526 22.7517 45.0977 23.3208 45.2428 23.7576C45.388 24.1943 45.5199 24.5385 45.6387 24.7899C45.7574 25.0414 45.8234 25.3458 45.863 25.7032C45.9421 26.4179 45.7706 26.9738 45.3484 27.3576C44.9394 27.7414 44.2269 27.9929 43.2241 28.112C42.7491 28.1649 42.3269 28.1252 41.9574 27.9796C41.5748 27.834 41.2582 27.662 40.9679 27.437C40.6908 27.212 40.4665 26.987 40.3082 26.7223C40.1498 26.4708 40.0575 26.259 40.0443 26.087C39.4373 21.7326 38.8436 17.3782 38.2367 13.0238C37.8408 13.0767 37.445 13.1296 37.0492 13.1958C36.7985 13.2355 36.5742 13.1958 36.3895 13.0635C36.2047 12.9443 36.0992 12.7591 36.0596 12.5341C36.02 12.3091 36.0728 12.0973 36.2179 11.9252C36.3631 11.7532 36.561 11.6473 36.8249 11.6076C37.2207 11.5546 37.6165 11.4885 38.0255 11.4355C37.854 10.2311 37.6957 9.0267 37.5242 7.82229C37.4582 7.35905 37.5901 6.96199 37.9068 6.61787C38.2235 6.27376 38.6325 6.07523 39.1207 6.00905C39.4769 5.95611 39.8068 6.00905 40.0971 6.11493C40.6512 6.33993 41.2054 6.5517 41.7463 6.7767C42.1554 6.94876 42.4852 7.18699 42.7359 7.51787C42.9866 7.83552 43.1317 8.20611 43.1845 8.60317C43.2637 9.33111 43.3428 10.059 43.422 10.787C43.9498 10.734 44.4776 10.6679 45.0053 10.6149V10.6414Z" fill="white"/>
<path d="M54.5723 4.85787C56.3271 4.77846 57.8577 4.93728 59.1771 5.30787C60.4965 5.67846 61.5917 6.19463 62.4493 6.84316C63.3201 7.49169 63.9534 8.21963 64.3757 9.05346C64.7979 9.88728 64.9958 10.7343 64.9958 11.5946C64.9958 12.402 64.7979 13.1829 64.4416 13.9373C64.0722 14.6917 63.5444 15.3932 62.8319 16.0152C62.1194 16.6373 61.2486 17.1667 60.2063 17.577C59.1639 18.0005 57.95 18.2785 56.5514 18.4108C56.3007 18.4373 56.0764 18.3711 55.8785 18.2123C55.6806 18.0535 55.5751 17.8417 55.5619 17.5902C55.5619 17.4049 55.6278 17.2196 55.7994 17.0608C55.9577 16.8888 56.2348 16.7564 56.6174 16.6637C57.1188 16.5446 57.5542 16.3196 57.9368 16.0152C58.3195 15.7108 58.6229 15.3402 58.8736 14.9035C59.1111 14.4799 59.2959 13.9902 59.4278 13.4608C59.5597 12.9314 59.6125 12.3755 59.5993 11.8064C59.5861 11.1314 59.4674 10.4696 59.2563 9.83434C59.0452 9.19904 58.7285 8.61669 58.3195 8.11375C57.9104 7.61081 57.3959 7.20051 56.7757 6.90934C56.1556 6.61816 55.4299 6.48581 54.6119 6.52551C54.216 6.53875 53.8202 6.56522 53.4244 6.57846C53.6487 10.7873 53.873 14.9961 54.0841 19.2049C54.1237 19.9461 54.2028 20.5946 54.3216 21.1637C54.4403 21.7329 54.5591 22.249 54.6778 22.699C54.7966 23.1623 54.9021 23.5593 55.0077 23.9035C55.1001 24.2476 55.1528 24.5652 55.166 24.8696C55.2056 25.677 54.9153 26.2593 54.3084 26.6299C53.7015 27.0005 52.8702 27.2255 51.8015 27.2917C50.7327 27.3711 49.8751 27.2652 49.2286 26.9873C48.5821 26.6961 48.2126 26.1667 48.1467 25.3858C48.1203 25.0946 48.1467 24.7638 48.1863 24.3932C48.239 24.0226 48.305 23.6123 48.3578 23.1358C48.4106 22.6593 48.4633 22.1432 48.5029 21.5608C48.5425 20.9785 48.5293 20.3299 48.4633 19.5887C48.2786 17.4843 48.1071 15.3932 47.9224 13.2887C47.8564 12.5476 47.7508 11.899 47.6189 11.3167C47.4738 10.7476 47.3286 10.2314 47.1835 9.7814C47.0383 9.3314 46.8932 8.9211 46.7745 8.57699C46.6425 8.23287 46.5765 7.90199 46.5502 7.61081C46.4842 6.82993 46.7745 6.23434 47.4474 5.83728C48.1203 5.44022 49.0703 5.18875 50.2709 5.10934C51.6959 5.01669 53.1341 4.92404 54.5723 4.85787Z" fill="white"/>
<path d="M82.61 19.8266C82.4912 20.8986 82.4385 21.7589 82.4517 22.4075C82.4648 23.056 82.5044 23.5854 82.5572 23.9957C82.61 24.406 82.6628 24.7501 82.7023 25.0148C82.7419 25.2928 82.7551 25.5839 82.7155 25.9016C82.6364 26.6163 82.3461 27.1192 81.8579 27.3972C81.3697 27.6884 80.6308 27.7678 79.6281 27.6751C78.9288 27.6089 78.3614 27.3575 77.9524 26.9339C77.5302 26.5104 77.2531 26.0869 77.1212 25.6633C76.4482 26.2192 75.6566 26.6295 74.7726 26.8678C73.8885 27.1192 72.9781 27.2119 72.0545 27.1589C71.2629 27.1192 70.4976 26.9604 69.7587 26.7089C69.0199 26.4442 68.3601 26.0604 67.7796 25.5442C67.199 25.0281 66.7372 24.406 66.381 23.6516C66.0379 22.9104 65.8664 22.0236 65.8796 21.0045C65.9324 17.7222 65.972 14.4398 66.0248 11.1575C66.0248 10.6942 66.2095 10.3104 66.5789 10.0192C66.9352 9.72806 67.3574 9.5957 67.8324 9.5957C68.1886 9.5957 68.4921 9.68835 68.7428 9.84717C69.2442 10.1516 69.7455 10.456 70.2337 10.7604C70.6032 10.9854 70.8802 11.2766 71.0782 11.6339C71.2761 11.9913 71.3684 12.3751 71.3421 12.7722C71.2233 15.5648 71.0914 18.3575 70.9726 21.1501C70.9462 21.8119 71.0122 22.381 71.1837 22.8575C71.3421 23.3472 71.5664 23.7442 71.8434 24.0619C72.1205 24.3795 72.4372 24.631 72.8066 24.8031C73.1629 24.9751 73.5455 25.0678 73.9281 25.0942C74.2976 25.1207 74.667 25.081 75.0365 24.9751C75.4059 24.8692 75.7489 24.7104 76.0524 24.4722C76.3691 24.2472 76.6198 23.956 76.8309 23.6119C77.0288 23.2678 77.1607 22.8575 77.1871 22.3942C77.4774 18.8339 77.7677 15.2869 78.0579 11.7266C78.0975 11.2633 78.3086 10.8928 78.6781 10.6281C79.0607 10.3633 79.4829 10.2442 79.9579 10.2972C80.3142 10.3236 80.6044 10.4295 80.8551 10.6016C81.3301 10.9325 81.8051 11.2766 82.2801 11.6075C82.6364 11.8589 82.9003 12.1634 83.085 12.5339C83.2697 12.9045 83.3357 13.2884 83.2961 13.6854C83.0718 15.7104 82.8475 17.7486 82.6232 19.7736L82.61 19.8266Z" fill="white"/>
<path d="M90.3015 20.7659C90.1828 21.5468 90.1168 22.235 90.1168 22.8438C90.1168 23.4526 90.1168 23.9953 90.1432 24.485C90.1696 24.9747 90.196 25.4115 90.2223 25.7953C90.2487 26.1791 90.2355 26.5365 90.1828 26.8541C90.064 27.6085 89.7078 28.1115 89.1272 28.3629C88.5467 28.6144 87.7154 28.6541 86.6203 28.5085C85.9342 28.4159 85.3932 28.0982 84.971 27.5556C84.5488 27.0262 84.3773 26.4173 84.4696 25.7423C85.4988 17.6159 86.5147 9.47616 87.5439 1.34969C87.5967 0.886459 87.8342 0.529106 88.2432 0.290871C88.6522 0.0394002 89.114 -0.0400116 89.6154 0.0261649C89.9453 0.0658708 90.2487 0.198224 90.5522 0.409988C91.0536 0.754106 91.5418 1.11146 92.03 1.45558C92.4258 1.73352 92.6897 2.05116 92.848 2.43499C93.0063 2.81881 93.0459 3.20264 92.9932 3.59969C92.0959 9.31734 91.2119 15.0482 90.3147 20.7659H90.3015Z" fill="white"/>
<path d="M99.0232 17.2455C98.9176 17.7484 99.0364 18.2249 99.3662 18.6749C99.6961 19.1381 100.131 19.6014 100.659 20.0911C101.187 20.5675 101.768 21.0837 102.401 21.6131C103.034 22.1425 103.588 22.7249 104.063 23.3205C104.552 23.9293 104.908 24.5778 105.159 25.2925C105.396 25.994 105.409 26.7616 105.211 27.5822C105.053 28.2175 104.71 28.7602 104.195 29.2102C103.681 29.6602 103.047 30.0043 102.322 30.2558C101.596 30.5072 100.791 30.6528 99.9204 30.6925C99.0496 30.7322 98.1655 30.6661 97.2815 30.4808C96.0809 30.2293 94.9593 29.7793 93.9038 29.1175C92.8482 28.4558 92.0434 27.5955 91.4628 26.5102C91.3441 26.2984 91.2649 26.1396 91.2385 26.0205C91.2122 25.9146 91.2122 25.7955 91.2385 25.7028C91.2781 25.4911 91.3837 25.319 91.5552 25.1866C91.7267 25.0543 91.9378 25.0146 92.1885 25.0543C92.3205 25.0808 92.4392 25.1337 92.558 25.2131C92.6767 25.2925 92.8087 25.4646 92.9406 25.7028C93.3364 26.3778 93.917 26.9469 94.6823 27.4234C95.4475 27.8999 96.226 28.2308 97.044 28.3896C97.8753 28.5616 98.6273 28.5352 99.3003 28.2969C99.9732 28.0719 100.395 27.5822 100.567 26.8411C100.699 26.219 100.62 25.6366 100.303 25.1072C99.9864 24.5778 99.5509 24.0484 99.01 23.5455C98.4558 23.0425 97.8489 22.5396 97.176 22.0499C96.5031 21.5602 95.8829 21.044 95.3288 20.5146C94.7746 19.9852 94.326 19.4161 93.983 18.8072C93.6531 18.1984 93.5343 17.5366 93.6663 16.7955C93.785 16.0675 94.0885 15.4455 94.5767 14.9425C95.0517 14.4396 95.6454 14.0425 96.3447 13.7646C97.044 13.4866 97.8357 13.3146 98.7065 13.2616C99.5773 13.2087 100.448 13.2616 101.306 13.4469C101.609 13.5131 102.058 13.6587 102.665 13.9102C103.272 14.1484 103.865 14.4396 104.459 14.7705C105.053 15.1014 105.554 15.4719 105.963 15.8558C106.372 16.2528 106.531 16.6234 106.438 16.9675C106.412 17.0469 106.372 17.1528 106.293 17.2587C106.029 17.5234 105.739 17.6161 105.396 17.5366C105.264 17.5102 105.079 17.3911 104.868 17.1793C103.958 16.319 103.061 15.7764 102.19 15.5911C101.411 15.419 100.712 15.4852 100.131 15.7896C99.5378 16.094 99.1815 16.5837 99.0364 17.2719L99.0232 17.2455Z" fill="white"/>
<path d="M120.74 32.9965C120.846 33.2215 120.872 33.4333 120.793 33.6583C120.754 33.7642 120.688 33.8568 120.608 33.9495C120.516 34.0421 120.345 34.148 120.081 34.2804C119.17 34.7436 118.049 34.9686 116.729 34.9951C115.41 35.0215 114.104 34.823 112.797 34.4127C111.781 34.0951 110.831 33.6318 109.934 33.0362C109.037 32.4274 108.298 31.6862 107.704 30.7995C107.124 29.9127 106.728 28.8804 106.543 27.6759C106.359 26.4848 106.477 25.1348 106.9 23.6524C107.243 22.5009 107.797 21.4686 108.562 20.5686C109.341 19.6818 110.264 18.9671 111.359 18.4642C112.454 17.948 113.655 17.6568 114.974 17.5642C116.294 17.4715 117.64 17.6568 118.999 18.1201C120.028 18.4509 120.886 18.8745 121.585 19.4039C122.284 19.9333 122.825 20.4892 123.221 21.0848C123.617 21.6804 123.854 22.3024 123.947 22.9377C124.039 23.573 123.973 24.1818 123.762 24.7642C123.511 25.4656 123.049 26.0745 122.403 26.6171C121.743 27.1598 120.899 27.5568 119.883 27.8348C118.854 28.1127 117.653 28.2054 116.254 28.1524C114.856 28.0995 113.299 27.7951 111.544 27.2921C111.504 28.7348 111.808 29.9127 112.468 30.8259C113.127 31.7392 113.985 32.3745 115.054 32.7186C115.727 32.9304 116.426 33.0362 117.191 33.0098C117.943 32.9833 118.656 32.8642 119.315 32.6524C119.579 32.5598 119.777 32.5201 119.896 32.5201C120.015 32.5201 120.133 32.5333 120.226 32.573C120.411 32.6392 120.582 32.7715 120.714 32.9833L120.74 32.9965ZM111.966 25.0686C111.94 25.1745 111.9 25.2804 111.874 25.3995C111.834 25.5186 111.821 25.6377 111.808 25.7436C112.89 26.0083 113.84 26.1142 114.684 26.0215C115.515 25.9421 116.241 25.7436 116.848 25.4392C117.455 25.1348 117.943 24.7377 118.339 24.2612C118.722 23.7848 118.999 23.2951 119.17 22.7921C119.408 22.0642 119.434 21.3759 119.223 20.7274C119.025 20.0789 118.59 19.6421 117.904 19.4171C117.336 19.2451 116.743 19.2715 116.136 19.523C115.529 19.7745 114.961 20.1715 114.42 20.7142C113.879 21.2568 113.404 21.9186 112.969 22.673C112.547 23.4274 112.217 24.2348 111.966 25.0686Z" fill="white"/>
</g>
<defs>
<clipPath id="clip0_1163_6985">
<rect width="124" height="36" fill="white"/>
</clipPath>
</defs>
</svg>
