<svg width="30" height="30" viewBox="0 0 30 30" fill="none" xmlns="http://www.w3.org/2000/svg">
<g clip-path="url(#clip0_1163_7000)">
<g clip-path="url(#clip1_1163_7000)">
<path d="M14.9905 5.53216C18.0752 5.53216 18.4405 5.54569 19.6537 5.59981C20.7812 5.64941 21.39 5.83883 21.7959 5.99667C22.3326 6.20412 22.7204 6.45668 23.1218 6.85806C23.5277 7.26394 23.7757 7.64729 23.9832 8.18395C24.141 8.58984 24.3305 9.20318 24.3801 10.3261C24.4342 11.5438 24.4477 11.9091 24.4477 14.9893C24.4477 18.074 24.4342 18.4393 24.3801 19.6525C24.3305 20.78 24.141 21.3888 23.9832 21.7947C23.7757 22.3314 23.5231 22.7192 23.1218 23.1206C22.7159 23.5265 22.3326 23.7745 21.7959 23.9819C21.39 24.1398 20.7766 24.3292 19.6537 24.3789C18.436 24.433 18.0707 24.4465 14.9905 24.4465C11.9057 24.4465 11.5405 24.433 10.3273 24.3789C9.19989 24.3292 8.59105 24.1398 8.18516 23.9819C7.6485 23.7745 7.26064 23.522 6.85927 23.1206C6.45338 22.7147 6.20534 22.3314 5.99789 21.7947C5.84004 21.3888 5.65062 20.7755 5.60102 19.6525C5.5469 18.4348 5.53337 18.0695 5.53337 14.9893C5.53337 11.9046 5.5469 11.5393 5.60102 10.3261C5.65062 9.19867 5.84004 8.58984 5.99789 8.18395C6.20534 7.64729 6.45789 7.25943 6.85927 6.85806C7.26515 6.45217 7.6485 6.20412 8.18516 5.99667C8.59105 5.83883 9.20439 5.64941 10.3273 5.59981C11.5405 5.54569 11.9057 5.53216 14.9905 5.53216ZM14.9905 3.45312C11.8562 3.45312 11.4638 3.46665 10.2326 3.52076C9.00596 3.57489 8.16262 3.77332 7.43202 4.05744C6.66985 4.35509 6.02494 4.74745 5.38455 5.39236C4.73964 6.03276 4.34729 6.67766 4.04963 7.43532C3.7655 8.17043 3.56708 9.00926 3.51296 10.2359C3.45884 11.4716 3.44531 11.864 3.44531 14.9983C3.44531 18.1327 3.45884 18.5251 3.51296 19.7562C3.56708 20.9829 3.7655 21.8262 4.04963 22.5568C4.34729 23.3191 4.73964 23.9639 5.38455 24.6043C6.02494 25.2447 6.66985 25.6416 7.42751 25.9347C8.16262 26.2189 9.00145 26.4172 10.2281 26.4714C11.4593 26.5255 11.8516 26.5391 14.986 26.5391C18.1204 26.5391 18.5128 26.5255 19.7439 26.4714C20.9706 26.4172 21.8139 26.2189 22.5445 25.9347C23.3022 25.6416 23.9472 25.2447 24.5875 24.6043C25.2279 23.9639 25.6247 23.3191 25.9179 22.5613C26.202 21.8262 26.4005 20.9875 26.4546 19.7607C26.5087 18.5296 26.5222 18.1372 26.5222 15.0028C26.5222 11.8685 26.5087 11.4762 26.4546 10.245C26.4005 9.01827 26.202 8.17494 25.9179 7.44434C25.6337 6.67766 25.2414 6.03276 24.5965 5.39236C23.9562 4.75195 23.3112 4.35509 22.5535 4.06195C21.8184 3.77783 20.9796 3.57939 19.7529 3.52527C18.5173 3.46665 18.1249 3.45312 14.9905 3.45312Z" fill="white"/>
<path d="M14.993 9.06641C11.7188 9.06641 9.0625 11.7227 9.0625 14.9969C9.0625 18.2711 11.7188 20.9273 14.993 20.9273C18.2671 20.9273 20.9234 18.2711 20.9234 14.9969C20.9234 11.7227 18.2671 9.06641 14.993 9.06641ZM14.993 18.8438C12.8688 18.8438 11.146 17.121 11.146 14.9969C11.146 12.8728 12.8688 11.15 14.993 11.15C17.1171 11.15 18.8399 12.8728 18.8399 14.9969C18.8399 17.121 17.1171 18.8438 14.993 18.8438Z" fill="white"/>
<path d="M22.5346 8.83179C22.5346 9.59846 21.9122 10.2163 21.1501 10.2163C20.3834 10.2163 19.7656 9.59395 19.7656 8.83179C19.7656 8.06512 20.3879 7.44727 21.1501 7.44727C21.9122 7.44727 22.5346 8.06963 22.5346 8.83179Z" fill="white"/>
</g>
</g>
<defs>
<clipPath id="clip0_1163_7000">
<rect width="30" height="30" fill="white"/>
</clipPath>
<clipPath id="clip1_1163_7000">
<rect width="30" height="30" fill="white"/>
</clipPath>
</defs>
</svg>
