<svg width="6" height="52" viewBox="0 0 6 52" fill="none" xmlns="http://www.w3.org/2000/svg">
<path d="M3 51.6667C4.47276 51.6667 5.66667 50.4728 5.66667 49C5.66667 47.5272 4.47276 46.3333 3 46.3333C1.52724 46.3333 0.333333 47.5272 0.333333 49C0.333333 50.4728 1.52724 51.6667 3 51.6667ZM3 5.66667C4.47276 5.66667 5.66667 4.47276 5.66667 3C5.66667 1.52724 4.47276 0.333332 3 0.333332C1.52724 0.333332 0.333335 1.52724 0.333335 3C0.333335 4.47276 1.52724 5.66667 3 5.66667ZM3 49L3.5 49L3.5 43.25L3 43.25L2.5 43.25L2.5 49L3 49ZM3 31.75L3.5 31.75L3.5 20.25L3 20.25L2.5 20.25L2.5 31.75L3 31.75ZM3 8.75L3.5 8.75L3.5 3L3 3L2.5 3L2.5 8.75L3 8.75Z" fill="#2D57ED"/>
</svg>
