<svg width="190" height="7" viewBox="0 0 190 7" fill="none" xmlns="http://www.w3.org/2000/svg">
<path d="M0.333333 3.5C0.333333 4.97276 1.52724 6.16667 3 6.16667C4.47276 6.16667 5.66667 4.97276 5.66667 3.5C5.66667 2.02724 4.47276 0.833333 3 0.833333C1.52724 0.833333 0.333333 2.02724 0.333333 3.5ZM184.333 3.5C184.333 4.97276 185.527 6.16667 187 6.16667C188.473 6.16667 189.667 4.97276 189.667 3.5C189.667 2.02724 188.473 0.833333 187 0.833333C185.527 0.833333 184.333 2.02724 184.333 3.5ZM3 3.5V4H8.11111V3.5V3H3V3.5ZM18.3333 3.5V4H28.5556V3.5V3H18.3333V3.5ZM38.7778 3.5V4H49V3.5V3H38.7778V3.5ZM59.2222 3.5V4H69.4444V3.5V3H59.2222V3.5ZM79.6667 3.5V4H89.8889V3.5V3H79.6667V3.5ZM100.111 3.5V4H110.333V3.5V3H100.111V3.5ZM120.556 3.5V4H130.778V3.5V3H120.556V3.5ZM141 3.5V4H151.222V3.5V3H141V3.5ZM161.444 3.5V4H171.667V3.5V3H161.444V3.5ZM181.889 3.5V4H187V3.5V3H181.889V3.5Z" fill="#2D57ED"/>
</svg>
