<svg width="59" height="60" viewBox="0 0 59 60" fill="none" xmlns="http://www.w3.org/2000/svg">
<path d="M35.1915 27.3327C35.0714 27.3207 34.9273 27.3207 34.7951 27.3327C31.9363 27.2365 29.666 24.8915 29.666 22.0054C29.666 19.0591 32.0444 16.666 34.9993 16.666C37.9423 16.666 40.3327 19.0591 40.3327 22.0054C40.3207 24.8915 38.0504 27.2365 35.1915 27.3327Z" stroke="white" stroke-width="1.5" stroke-linecap="round" stroke-linejoin="round"/>
<path d="M28.1499 31.4856C24.8381 33.2392 24.8381 36.0968 28.1499 37.8396C31.9133 39.8313 38.0854 39.8313 41.8488 37.8396C45.1606 36.086 45.1606 33.2284 41.8488 31.4856C38.0991 29.5048 31.927 29.5048 28.1499 31.4856Z" stroke="white" stroke-width="1.5" stroke-linecap="round" stroke-linejoin="round"/>
<path d="M25.666 23.9993V16.666" stroke="white" stroke-width="1.5" stroke-linecap="round"/>
<path d="M23 22V18M47 22V18" stroke="white" stroke-width="1.5" stroke-linecap="round"/>
<path d="M44.334 23.3327V16.666" stroke="white" stroke-width="1.5" stroke-linecap="round"/>
<path d="M25.666 21.9993C25.666 16.8447 29.8447 12.666 34.9993 12.666C40.154 12.666 44.3327 16.8447 44.3327 21.9993V24.09C44.3327 24.8857 44.0166 25.6488 43.454 26.2114L42.3327 27.3327" stroke="white" stroke-width="1.5" stroke-linecap="round"/>
</svg>
