<svg width="124" height="36" viewBox="0 0 124 36" fill="none" xmlns="http://www.w3.org/2000/svg">
<g clip-path="url(#clip0_1163_6590)">
<path d="M7.29662 13.1826C8.98549 12.6532 10.5292 12.415 11.9014 12.4414C13.2868 12.4679 14.4743 12.6797 15.4903 13.09C16.493 13.487 17.3111 14.0429 17.9312 14.7311C18.5514 15.4194 18.9604 16.2003 19.1715 17.0341C19.3694 17.815 19.3826 18.6223 19.2111 19.4429C19.0527 20.2767 18.6965 21.0708 18.1687 21.865C17.6409 22.6458 16.9153 23.3738 15.9917 24.0488C15.0813 24.7238 13.9597 25.2929 12.6271 25.7958C12.3896 25.8885 12.1653 25.8885 11.9278 25.7826C11.6903 25.6767 11.532 25.5047 11.466 25.2664C11.4132 25.0811 11.4396 24.8958 11.5584 24.6841C11.6771 24.4856 11.9146 24.287 12.2577 24.0885C12.7063 23.837 13.0889 23.5194 13.3792 23.1223C13.6695 22.7253 13.8806 22.2885 14.0125 21.812C14.1445 21.3356 14.1972 20.8194 14.1972 20.2767C14.1972 19.7341 14.1049 19.1782 13.9465 18.6356C13.7618 17.987 13.4847 17.3782 13.1153 16.8091C12.7459 16.24 12.2973 15.7635 11.7695 15.3797C11.2417 14.9958 10.6348 14.7311 9.94867 14.612C9.26257 14.4797 8.52369 14.5458 7.73203 14.7973C7.34939 14.9164 6.96676 15.0356 6.58413 15.1547C7.86397 19.165 9.13062 23.1885 10.4105 27.1988C10.6348 27.9003 10.8723 28.5223 11.1362 29.0385C11.4 29.5547 11.6375 30.0179 11.875 30.4414C12.1125 30.8517 12.3105 31.2223 12.4952 31.5267C12.6667 31.8311 12.8118 32.1356 12.891 32.4135C13.1285 33.1811 12.9966 33.8164 12.4952 34.3326C11.9938 34.8488 11.2285 35.2723 10.1994 35.6164C9.17021 35.9606 8.29938 36.0929 7.60009 35.9738C6.88759 35.8679 6.39941 35.4444 6.13552 34.7032C6.02996 34.4253 5.96399 34.1076 5.92441 33.737C5.88483 33.3664 5.83205 32.9429 5.77927 32.4797C5.7133 32.0032 5.63414 31.487 5.52858 30.9179C5.42303 30.3488 5.2515 29.7135 5.00081 29.012C4.30151 27.0267 3.60221 25.0414 2.88972 23.0561C2.63903 22.3547 2.37514 21.7458 2.09806 21.2297C1.80779 20.7135 1.5439 20.2503 1.28002 19.8532C1.01613 19.4561 0.791828 19.0988 0.567525 18.7944C0.356416 18.49 0.198085 18.1988 0.0925305 17.9208C-0.171355 17.1797 -0.0262181 16.5311 0.527942 15.9753C1.0821 15.4194 1.95293 14.9297 3.11402 14.5458C4.48623 14.0826 5.87163 13.6326 7.25703 13.1958L7.29662 13.1826Z" fill="#2D57ED"/>
<path d="M37.4192 24.9618C37.6171 25.1074 37.7358 25.2926 37.7754 25.5176C37.7886 25.6235 37.7754 25.7426 37.749 25.8618C37.7094 25.9809 37.6171 26.1662 37.4456 26.4044C36.865 27.2382 36.0074 27.9794 34.8727 28.6279C33.738 29.2765 32.5109 29.7265 31.1783 29.9912C30.1359 30.1897 29.0936 30.2426 28.0248 30.1368C26.9561 30.0309 25.9533 29.7397 25.0165 29.2368C24.0797 28.7338 23.2485 28.0059 22.5228 27.0397C21.7971 26.0735 21.2562 24.8426 20.9263 23.3338C20.6756 22.1559 20.6756 20.9779 20.9263 19.8265C21.177 18.675 21.6652 17.6162 22.3777 16.6368C23.0902 15.6706 24.0138 14.8235 25.1221 14.1221C26.2304 13.4206 27.4971 12.9441 28.9088 12.6926C29.9644 12.4941 30.9144 12.4544 31.772 12.5868C32.6296 12.7191 33.3685 12.9574 33.9887 13.2882C34.622 13.6324 35.1234 14.0559 35.4928 14.5721C35.8622 15.0882 36.0997 15.6574 36.1921 16.2662C36.2977 16.9941 36.1921 17.7618 35.8754 18.5426C35.5588 19.3368 35.0178 20.0912 34.2525 20.8191C33.4873 21.5471 32.4845 22.2088 31.2442 22.8176C30.004 23.4265 28.4998 23.9162 26.7186 24.3C27.3651 25.5838 28.1964 26.4838 29.1991 26.9735C30.2151 27.4632 31.2574 27.6088 32.3526 27.4103C33.0387 27.2779 33.6984 27.0265 34.3449 26.6426C34.9914 26.2588 35.5456 25.8221 36.0206 25.3191C36.2053 25.1206 36.3504 24.9882 36.456 24.9221C36.5615 24.8691 36.6671 24.8294 36.7727 24.8029C36.9706 24.7765 37.1817 24.8029 37.3928 24.9353L37.4192 24.9618ZM26.0325 22.1691C26.0589 22.275 26.0853 22.3809 26.1117 22.5132C26.138 22.6324 26.1776 22.7515 26.2172 22.8441C27.286 22.5662 28.17 22.1956 28.8561 21.7191C29.5422 21.2426 30.0831 20.7265 30.4658 20.1706C30.8484 19.6147 31.0991 19.0324 31.2047 18.4368C31.3102 17.8412 31.3234 17.2721 31.231 16.7559C31.0991 16.0015 30.7824 15.3926 30.3074 14.9029C29.8193 14.4265 29.2387 14.2412 28.5394 14.3868C27.9589 14.5059 27.4575 14.8103 27.0485 15.3132C26.6394 15.8162 26.3228 16.4382 26.1117 17.1794C25.9006 17.9206 25.7818 18.7279 25.7686 19.5882C25.7554 20.4618 25.8478 21.3221 26.0325 22.1691Z" fill="#2D57ED"/>
<path d="M45.0053 10.6412C45.2692 10.6147 45.4803 10.6676 45.665 10.8C45.8498 10.9324 45.9421 11.1176 45.9685 11.3426C45.9949 11.5809 45.9289 11.7662 45.7706 11.9382C45.6255 12.0971 45.4144 12.1897 45.1637 12.2162C44.6359 12.2691 44.1081 12.3221 43.5935 12.375C43.8442 14.6382 44.0817 16.9015 44.3324 19.1647C44.4644 20.3824 44.6095 21.3485 44.781 22.05C44.9526 22.7515 45.0977 23.3206 45.2428 23.7574C45.388 24.1941 45.5199 24.5382 45.6387 24.7897C45.7574 25.0412 45.8234 25.3456 45.863 25.7029C45.9421 26.4176 45.7706 26.9735 45.3484 27.3574C44.9394 27.7412 44.2269 27.9926 43.2241 28.1118C42.7491 28.1647 42.3269 28.125 41.9574 27.9794C41.5748 27.8338 41.2582 27.6618 40.9679 27.4368C40.6908 27.2118 40.4665 26.9868 40.3082 26.7221C40.1498 26.4706 40.0575 26.2588 40.0443 26.0868C39.4373 21.7324 38.8436 17.3779 38.2367 13.0235C37.8408 13.0765 37.445 13.1294 37.0492 13.1956C36.7985 13.2353 36.5742 13.1956 36.3895 13.0632C36.2047 12.9441 36.0992 12.7588 36.0596 12.5338C36.02 12.3088 36.0728 12.0971 36.2179 11.925C36.3631 11.7529 36.561 11.6471 36.8249 11.6074C37.2207 11.5544 37.6165 11.4882 38.0255 11.4353C37.854 10.2309 37.6957 9.02647 37.5242 7.82206C37.4582 7.35882 37.5901 6.96176 37.9068 6.61765C38.2235 6.27353 38.6325 6.075 39.1207 6.00882C39.4769 5.95588 39.8068 6.00882 40.0971 6.11471C40.6512 6.33971 41.2054 6.55147 41.7463 6.77647C42.1554 6.94853 42.4852 7.18676 42.7359 7.51765C42.9866 7.83529 43.1317 8.20588 43.1845 8.60294C43.2637 9.33088 43.3428 10.0588 43.422 10.7868C43.9498 10.7338 44.4776 10.6676 45.0053 10.6147V10.6412Z" fill="#2D57ED"/>
<path d="M54.5723 4.85787C56.3271 4.77846 57.8577 4.93728 59.1771 5.30787C60.4965 5.67846 61.5917 6.19463 62.4493 6.84316C63.3201 7.49169 63.9534 8.21963 64.3757 9.05346C64.7979 9.88728 64.9958 10.7343 64.9958 11.5946C64.9958 12.402 64.7979 13.1829 64.4416 13.9373C64.0722 14.6917 63.5444 15.3932 62.8319 16.0152C62.1194 16.6373 61.2486 17.1667 60.2063 17.577C59.1639 18.0005 57.95 18.2785 56.5514 18.4108C56.3007 18.4373 56.0764 18.3711 55.8785 18.2123C55.6806 18.0535 55.5751 17.8417 55.5619 17.5902C55.5619 17.4049 55.6278 17.2196 55.7994 17.0608C55.9577 16.8888 56.2348 16.7564 56.6174 16.6637C57.1188 16.5446 57.5542 16.3196 57.9368 16.0152C58.3195 15.7108 58.6229 15.3402 58.8736 14.9035C59.1111 14.4799 59.2959 13.9902 59.4278 13.4608C59.5597 12.9314 59.6125 12.3755 59.5993 11.8064C59.5861 11.1314 59.4674 10.4696 59.2563 9.83434C59.0452 9.19904 58.7285 8.61669 58.3195 8.11375C57.9104 7.61081 57.3959 7.20051 56.7757 6.90934C56.1556 6.61816 55.4299 6.48581 54.6119 6.52551C54.216 6.53875 53.8202 6.56522 53.4244 6.57846C53.6487 10.7873 53.873 14.9961 54.0841 19.2049C54.1237 19.9461 54.2028 20.5946 54.3216 21.1637C54.4403 21.7329 54.5591 22.249 54.6778 22.699C54.7966 23.1623 54.9021 23.5593 55.0077 23.9035C55.1001 24.2476 55.1528 24.5652 55.166 24.8696C55.2056 25.677 54.9153 26.2593 54.3084 26.6299C53.7015 27.0005 52.8702 27.2255 51.8015 27.2917C50.7327 27.3711 49.8751 27.2652 49.2286 26.9873C48.5821 26.6961 48.2126 26.1667 48.1467 25.3858C48.1203 25.0946 48.1467 24.7638 48.1863 24.3932C48.239 24.0226 48.305 23.6123 48.3578 23.1358C48.4106 22.6593 48.4633 22.1432 48.5029 21.5608C48.5425 20.9785 48.5293 20.3299 48.4633 19.5887C48.2786 17.4843 48.1071 15.3932 47.9224 13.2887C47.8564 12.5476 47.7508 11.899 47.6189 11.3167C47.4738 10.7476 47.3286 10.2314 47.1835 9.7814C47.0383 9.3314 46.8932 8.9211 46.7745 8.57699C46.6425 8.23287 46.5765 7.90199 46.5502 7.61081C46.4842 6.82993 46.7745 6.23434 47.4474 5.83728C48.1203 5.44022 49.0703 5.18875 50.2709 5.10934C51.6959 5.01669 53.1341 4.92404 54.5723 4.85787Z" fill="#2D57ED"/>
<path d="M82.61 19.8265C82.4912 20.8985 82.4385 21.7588 82.4517 22.4074C82.4648 23.0559 82.5044 23.5853 82.5572 23.9956C82.61 24.4059 82.6628 24.75 82.7023 25.0147C82.7419 25.2926 82.7551 25.5838 82.7155 25.9015C82.6364 26.6162 82.3461 27.1191 81.8579 27.3971C81.3697 27.6882 80.6308 27.7676 79.6281 27.675C78.9288 27.6088 78.3614 27.3574 77.9524 26.9338C77.5302 26.5103 77.2531 26.0868 77.1212 25.6632C76.4482 26.2191 75.6566 26.6294 74.7726 26.8676C73.8885 27.1191 72.9781 27.2118 72.0545 27.1588C71.2629 27.1191 70.4976 26.9603 69.7587 26.7088C69.0199 26.4441 68.3601 26.0603 67.7796 25.5441C67.199 25.0279 66.7372 24.4059 66.381 23.6515C66.0379 22.9103 65.8664 22.0235 65.8796 21.0044C65.9324 17.7221 65.972 14.4397 66.0248 11.1574C66.0248 10.6941 66.2095 10.3103 66.5789 10.0191C66.9352 9.72794 67.3574 9.59559 67.8324 9.59559C68.1886 9.59559 68.4921 9.68824 68.7428 9.84706C69.2442 10.1515 69.7455 10.4559 70.2337 10.7603C70.6032 10.9853 70.8802 11.2765 71.0782 11.6338C71.2761 11.9912 71.3684 12.375 71.3421 12.7721C71.2233 15.5647 71.0914 18.3574 70.9726 21.15C70.9462 21.8118 71.0122 22.3809 71.1837 22.8574C71.3421 23.3471 71.5664 23.7441 71.8434 24.0618C72.1205 24.3794 72.4372 24.6309 72.8066 24.8029C73.1629 24.975 73.5455 25.0676 73.9281 25.0941C74.2976 25.1206 74.667 25.0809 75.0365 24.975C75.4059 24.8691 75.7489 24.7103 76.0524 24.4721C76.3691 24.2471 76.6198 23.9559 76.8309 23.6118C77.0288 23.2676 77.1607 22.8574 77.1871 22.3941C77.4774 18.8338 77.7677 15.2868 78.0579 11.7265C78.0975 11.2632 78.3086 10.8926 78.6781 10.6279C79.0607 10.3632 79.4829 10.2441 79.9579 10.2971C80.3142 10.3235 80.6044 10.4294 80.8551 10.6015C81.3301 10.9324 81.8051 11.2765 82.2801 11.6074C82.6364 11.8588 82.9003 12.1632 83.085 12.5338C83.2697 12.9044 83.3357 13.2882 83.2961 13.6853C83.0718 15.7103 82.8475 17.7485 82.6232 19.7735L82.61 19.8265Z" fill="#2D57ED"/>
<path d="M90.3015 20.7659C90.1828 21.5468 90.1168 22.235 90.1168 22.8438C90.1168 23.4526 90.1168 23.9953 90.1432 24.485C90.1696 24.9747 90.196 25.4115 90.2223 25.7953C90.2487 26.1791 90.2355 26.5365 90.1828 26.8541C90.064 27.6085 89.7078 28.1115 89.1272 28.3629C88.5467 28.6144 87.7154 28.6541 86.6203 28.5085C85.9342 28.4159 85.3932 28.0982 84.971 27.5556C84.5488 27.0262 84.3773 26.4173 84.4696 25.7423C85.4988 17.6159 86.5147 9.47616 87.5439 1.34969C87.5967 0.886459 87.8342 0.529106 88.2432 0.290871C88.6522 0.0394002 89.114 -0.0400116 89.6154 0.0261649C89.9453 0.0658708 90.2487 0.198224 90.5522 0.409988C91.0536 0.754106 91.5418 1.11146 92.03 1.45558C92.4258 1.73352 92.6897 2.05116 92.848 2.43499C93.0063 2.81881 93.0459 3.20264 92.9932 3.59969C92.0959 9.31734 91.2119 15.0482 90.3147 20.7659H90.3015Z" fill="#2D57ED"/>
<path d="M99.0232 17.2456C98.9176 17.7485 99.0364 18.225 99.3662 18.675C99.6961 19.1382 100.131 19.6015 100.659 20.0912C101.187 20.5676 101.768 21.0838 102.401 21.6132C103.034 22.1426 103.588 22.725 104.063 23.3206C104.552 23.9294 104.908 24.5779 105.159 25.2926C105.396 25.9941 105.409 26.7618 105.211 27.5824C105.053 28.2176 104.71 28.7603 104.195 29.2103C103.681 29.6603 103.047 30.0044 102.322 30.2559C101.596 30.5074 100.791 30.6529 99.9204 30.6926C99.0496 30.7324 98.1655 30.6662 97.2815 30.4809C96.0809 30.2294 94.9593 29.7794 93.9038 29.1176C92.8482 28.4559 92.0434 27.5956 91.4628 26.5103C91.3441 26.2985 91.2649 26.1397 91.2385 26.0206C91.2122 25.9147 91.2122 25.7956 91.2385 25.7029C91.2781 25.4912 91.3837 25.3191 91.5552 25.1868C91.7267 25.0544 91.9378 25.0147 92.1885 25.0544C92.3205 25.0809 92.4392 25.1338 92.558 25.2132C92.6767 25.2926 92.8087 25.4647 92.9406 25.7029C93.3364 26.3779 93.917 26.9471 94.6823 27.4235C95.4475 27.9 96.226 28.2309 97.044 28.3897C97.8753 28.5618 98.6273 28.5353 99.3003 28.2971C99.9732 28.0721 100.395 27.5824 100.567 26.8412C100.699 26.2191 100.62 25.6368 100.303 25.1074C99.9864 24.5779 99.5509 24.0485 99.01 23.5456C98.4558 23.0426 97.8489 22.5397 97.176 22.05C96.5031 21.5603 95.8829 21.0441 95.3288 20.5147C94.7746 19.9853 94.326 19.4162 93.983 18.8074C93.6531 18.1985 93.5343 17.5368 93.6663 16.7956C93.785 16.0676 94.0885 15.4456 94.5767 14.9426C95.0517 14.4397 95.6454 14.0426 96.3447 13.7647C97.044 13.4868 97.8357 13.3147 98.7065 13.2618C99.5773 13.2088 100.448 13.2618 101.306 13.4471C101.609 13.5132 102.058 13.6588 102.665 13.9103C103.272 14.1485 103.865 14.4397 104.459 14.7706C105.053 15.1015 105.554 15.4721 105.963 15.8559C106.372 16.2529 106.531 16.6235 106.438 16.9676C106.412 17.0471 106.372 17.1529 106.293 17.2588C106.029 17.5235 105.739 17.6162 105.396 17.5368C105.264 17.5103 105.079 17.3912 104.868 17.1794C103.958 16.3191 103.061 15.7765 102.19 15.5912C101.411 15.4191 100.712 15.4853 100.131 15.7897C99.5378 16.0941 99.1815 16.5838 99.0364 17.2721L99.0232 17.2456Z" fill="#2D57ED"/>
<path d="M120.74 32.9965C120.846 33.2215 120.872 33.4333 120.793 33.6583C120.754 33.7642 120.688 33.8568 120.608 33.9495C120.516 34.0421 120.345 34.148 120.081 34.2804C119.17 34.7436 118.049 34.9686 116.729 34.9951C115.41 35.0215 114.104 34.823 112.797 34.4127C111.781 34.0951 110.831 33.6318 109.934 33.0362C109.037 32.4274 108.298 31.6862 107.704 30.7995C107.124 29.9127 106.728 28.8804 106.543 27.6759C106.359 26.4848 106.477 25.1348 106.9 23.6524C107.243 22.5009 107.797 21.4686 108.562 20.5686C109.341 19.6818 110.264 18.9671 111.359 18.4642C112.454 17.948 113.655 17.6568 114.974 17.5642C116.294 17.4715 117.64 17.6568 118.999 18.1201C120.028 18.4509 120.886 18.8745 121.585 19.4039C122.284 19.9333 122.825 20.4892 123.221 21.0848C123.617 21.6804 123.854 22.3024 123.947 22.9377C124.039 23.573 123.973 24.1818 123.762 24.7642C123.511 25.4656 123.049 26.0745 122.403 26.6171C121.743 27.1598 120.899 27.5568 119.883 27.8348C118.854 28.1127 117.653 28.2054 116.254 28.1524C114.856 28.0995 113.299 27.7951 111.544 27.2921C111.504 28.7348 111.808 29.9127 112.468 30.8259C113.127 31.7392 113.985 32.3745 115.054 32.7186C115.727 32.9304 116.426 33.0362 117.191 33.0098C117.943 32.9833 118.656 32.8642 119.315 32.6524C119.579 32.5598 119.777 32.5201 119.896 32.5201C120.015 32.5201 120.133 32.5333 120.226 32.573C120.411 32.6392 120.582 32.7715 120.714 32.9833L120.74 32.9965ZM111.966 25.0686C111.94 25.1745 111.9 25.2804 111.874 25.3995C111.834 25.5186 111.821 25.6377 111.808 25.7436C112.89 26.0083 113.84 26.1142 114.684 26.0215C115.515 25.9421 116.241 25.7436 116.848 25.4392C117.455 25.1348 117.943 24.7377 118.339 24.2612C118.722 23.7848 118.999 23.2951 119.17 22.7921C119.408 22.0642 119.434 21.3759 119.223 20.7274C119.025 20.0789 118.59 19.6421 117.904 19.4171C117.336 19.2451 116.743 19.2715 116.136 19.523C115.529 19.7745 114.961 20.1715 114.42 20.7142C113.879 21.2568 113.404 21.9186 112.969 22.673C112.547 23.4274 112.217 24.2348 111.966 25.0686Z" fill="#2D57ED"/>
</g>
<defs>
<clipPath id="clip0_1163_6590">
<rect width="124" height="36" fill="white"/>
</clipPath>
</defs>
</svg>
