<svg width="32" height="32" viewBox="0 0 32 32" fill="none" xmlns="http://www.w3.org/2000/svg">
<path d="M4.66594 27.3333C5.7726 28.4399 7.55927 28.4399 8.66594 27.3333L25.9993 9.99992C27.1059 8.89325 27.1059 7.10659 25.9993 5.99992C24.8926 4.89326 23.1059 4.89326 21.9993 5.99992L4.66594 23.3333C3.55927 24.4399 3.55927 26.2266 4.66594 27.3333Z" stroke="white" stroke-width="1.5" stroke-linecap="round" stroke-linejoin="round"/>
<path d="M24.0137 11.9863L20.0137 7.98633" stroke="white" stroke-width="1.5" stroke-linecap="round" stroke-linejoin="round"/>
<path d="M11.334 3.25268L13.334 2.66602L12.7473 4.66602L13.334 6.66602L11.334 6.07935L9.33398 6.66602L9.92065 4.66602L9.33398 2.66602L11.334 3.25268Z" stroke="white" stroke-linecap="round" stroke-linejoin="round"/>
<path d="M6 11.2527L8 10.666L7.41333 12.666L8 14.666L6 14.0793L4 14.666L4.58667 12.666L4 10.666L6 11.2527Z" stroke="white" stroke-linecap="round" stroke-linejoin="round"/>
<path d="M26 17.9207L28 17.334L27.4133 19.334L28 21.334L26 20.7473L24 21.334L24.5867 19.334L24 17.334L26 17.9207Z" stroke="white" stroke-linecap="round" stroke-linejoin="round"/>
</svg>
