<svg width="30" height="30" viewBox="0 0 30 30" fill="none" xmlns="http://www.w3.org/2000/svg">
<g clip-path="url(#clip0_1163_7008)">
<g clip-path="url(#clip1_1163_7008)">
<path d="M20.7786 14.6498C20.6747 14.5999 20.569 14.5519 20.462 14.506C20.2757 11.0726 18.3996 9.10702 15.2495 9.08691C15.2352 9.08681 15.221 9.08681 15.2067 9.08681C13.3225 9.08681 11.7555 9.89108 10.791 11.3546L12.5235 12.5431C13.244 11.4499 14.3748 11.2168 15.2075 11.2168C15.2172 11.2168 15.2268 11.2168 15.2364 11.2169C16.2736 11.2235 17.0563 11.5251 17.5629 12.1132C17.9315 12.5414 18.1781 13.1331 18.3002 13.8797C17.3806 13.7235 16.386 13.6754 15.3228 13.7363C12.3278 13.9089 10.4023 15.6556 10.5317 18.0828C10.5973 19.314 11.2106 20.3732 12.2586 21.0651C13.1448 21.6499 14.286 21.936 15.4721 21.8712C17.0385 21.7854 18.2672 21.1878 19.1245 20.095C19.7755 19.2652 20.1873 18.1898 20.3691 16.8347C21.1156 17.2853 21.6688 17.8781 21.9744 18.5907C22.494 19.8022 22.5242 21.7929 20.8998 23.4159C19.4767 24.8377 17.766 25.4528 15.1805 25.4718C12.3126 25.4506 10.1437 24.5307 8.73348 22.7381C7.41295 21.0594 6.73048 18.6347 6.70503 15.5314C6.73048 12.4281 7.41295 10.0033 8.73348 8.32466C10.1437 6.53198 12.3126 5.61225 15.1805 5.59094C18.0692 5.61241 20.2759 6.53656 21.7401 8.3379C22.4581 9.22126 22.9993 10.3321 23.3562 11.6274L25.3864 11.0857C24.9538 9.49141 24.2733 8.11758 23.3471 6.97822C21.47 4.66882 18.7248 3.48548 15.1876 3.46094H15.1734C11.6434 3.48539 8.92887 4.67324 7.10525 6.99145C5.48248 9.05439 4.6454 11.9249 4.61728 15.5229L4.61719 15.5314L4.61728 15.5399C4.6454 19.1379 5.48248 22.0084 7.10525 24.0714C8.92887 26.3895 11.6434 27.5775 15.1734 27.6018H15.1876C18.3259 27.5801 20.5381 26.7585 22.3605 24.9377C24.7448 22.5556 24.673 19.5698 23.8871 17.7369C23.3233 16.4224 22.2485 15.3549 20.7786 14.6498ZM15.36 19.7444C14.0473 19.8183 12.6836 19.2291 12.6163 17.9671C12.5665 17.0314 13.2822 15.9873 15.4405 15.8629C15.6876 15.8486 15.9302 15.8417 16.1685 15.8417C16.9525 15.8417 17.6859 15.9179 18.3526 16.0636C18.1039 19.1695 16.6451 19.6739 15.36 19.7444Z" fill="white"/>
</g>
</g>
<defs>
<clipPath id="clip0_1163_7008">
<rect width="30" height="30" fill="white"/>
</clipPath>
<clipPath id="clip1_1163_7008">
<rect width="30" height="30" fill="white"/>
</clipPath>
</defs>
</svg>
