<svg width="512" height="512" viewBox="0 0 512 512" fill="none" xmlns="http://www.w3.org/2000/svg">
  <rect width="512" height="512" rx="256" fill="#2D57ED"/>
  <path d="M256 128C192 128 140 180 140 244C140 308 192 360 256 360C320 360 372 308 372 244C372 180 320 128 256 128ZM256 340C203 340 160 297 160 244C160 191 203 148 256 148C309 148 352 191 352 244C352 297 309 340 256 340Z" fill="white"/>
  <path d="M256 168C214 168 180 202 180 244C180 286 214 320 256 320C298 320 332 286 332 244C332 202 298 168 256 168ZM256 300C225 300 200 275 200 244C200 213 225 188 256 188C287 188 312 213 312 244C312 275 287 300 256 300Z" fill="white"/>
  <path d="M256 208C236 208 220 224 220 244C220 264 236 280 256 280C276 280 292 264 292 244C292 224 276 208 256 208Z" fill="white"/>
</svg>
